<svg width="1024" height="1024" xmlns="http://www.w3.org/2000/svg">
  <rect x="50" y="50" width="924" height="924" rx="180" fill="#0d1117"/>
  
  <!-- Column 1 - Backlog -->
  <rect x="150" y="180" width="220" height="664" rx="20" fill="#161b22"/>
  <rect x="150" y="180" width="220" height="14" rx="7" fill="#6b7280"/>
  <rect x="170" y="230" width="180" height="100" rx="12" fill="#0d1117"/>
  <rect x="170" y="350" width="180" height="100" rx="12" fill="#0d1117"/>
  <rect x="170" y="470" width="180" height="100" rx="12" fill="#0d1117"/>
  
  <!-- Column 2 - In Progress -->
  <rect x="400" y="180" width="220" height="664" rx="20" fill="#161b22"/>
  <rect x="400" y="180" width="220" height="14" rx="7" fill="#a855f7"/>
  <rect x="420" y="230" width="180" height="100" rx="12" fill="#0d1117"/>
  <rect x="420" y="350" width="180" height="100" rx="12" fill="#0d1117"/>
  
  <!-- Column 3 - Done -->
  <rect x="650" y="180" width="220" height="664" rx="20" fill="#161b22"/>
  <rect x="650" y="180" width="220" height="14" rx="7" fill="#22c55e"/>
  <rect x="670" y="230" width="180" height="100" rx="12" fill="#0d1117"/>
</svg>
